<?xml version="1.0" encoding="UTF-8" standalone="no"?>
<!-- Uploaded to: SVG Repo, www.svgrepo.com, Generator: SVG Repo Mixer Tools -->

<svg
   width="290.61401"
   height="95.825996"
   viewBox="2.86 -2064.196 2906.1401 958.25996"
   version="1.1"
   id="svg18"
   sodipodi:docname="google-store.svg"
   inkscape:version="1.3 (0e150ed6c4, 2023-07-21)"
   xmlns:inkscape="http://www.inkscape.org/namespaces/inkscape"
   xmlns:sodipodi="http://sodipodi.sourceforge.net/DTD/sodipodi-0.dtd"
   xmlns:xlink="http://www.w3.org/1999/xlink"
   xmlns="http://www.w3.org/2000/svg"
   xmlns:svg="http://www.w3.org/2000/svg">
  <sodipodi:namedview
     id="namedview18"
     pagecolor="#505050"
     bordercolor="#eeeeee"
     borderopacity="1"
     inkscape:showpageshadow="0"
     inkscape:pageopacity="0"
     inkscape:pagecheckerboard="0"
     inkscape:deskcolor="#505050"
     inkscape:zoom="5.0290084"
     inkscape:cx="168.91998"
     inkscape:cy="66.31526"
     inkscape:window-width="3440"
     inkscape:window-height="1417"
     inkscape:window-x="1912"
     inkscape:window-y="-8"
     inkscape:window-maximized="1"
     inkscape:current-layer="svg18" />
  <path
     d="m 2908.9995,-1242.0418 c 0,70.9432 -57.5062,128.4773 -128.4381,128.4773 H 131.32603 C 60.388461,-1113.5588 2.86,-1171.0929 2.86,-1242.0418 V -1935.73 c 0,-70.9375 57.528461,-128.466 128.46603,-128.466 H 2780.5557 c 70.9319,0 128.4381,57.5285 128.4381,128.466 v 693.6882 z"
     id="path1"
     style="fill:#506c64;fill-opacity:1;stroke-width:0.473485" />
  <defs
     id="defs1">
    <path
       id="a"
       d="m 1332.988,884.566 -276.756,-159.78 c 0,0 -504.191,-291.132 -533.832,-308.244 -29.64,-17.112 -59.172,-6.744 -59.172,29.016 v 1255.813 c 0,26.808 21.107,38.364 46.859,23.508 25.74,-14.88 546.145,-315.348 546.145,-315.348 l 276.744,-159.769 c 0,0 234.816,-135.563 266.027,-153.576 31.213,-18.036 28.213,-42.756 1.873,-56.939 -26.328,-14.197 -267.888,-154.681 -267.888,-154.681 z" />
    <linearGradient
       id="a-0"
       gradientUnits="userSpaceOnUse"
       x1="-23.235001"
       y1="97.431"
       x2="-23.235001"
       y2="61.386002"
       gradientTransform="matrix(88.211065,0,0,95.703941,4159.1658,-10427.927)">
      <stop
         offset="0"
         stop-color="#1a1a1a"
         stop-opacity=".1"
         id="stop4-9" />
      <stop
         offset=".123"
         stop-color="#212121"
         stop-opacity=".151"
         id="stop5-5" />
      <stop
         offset=".308"
         stop-color="#353535"
         stop-opacity=".227"
         id="stop6-2" />
      <stop
         offset=".532"
         stop-color="#575757"
         stop-opacity=".318"
         id="stop7-0" />
      <stop
         offset=".783"
         stop-color="#858585"
         stop-opacity=".421"
         id="stop8-4" />
      <stop
         offset="1"
         stop-color="#b3b3b3"
         stop-opacity=".51"
         id="stop9-6" />
    </linearGradient>
  </defs>
  <clipPath
     id="b">
    <use
       xlink:href="#a"
       overflow="visible"
       id="use1" />
  </clipPath>
  <linearGradient
     id="c"
     gradientUnits="userSpaceOnUse"
     x1="1451.479"
     y1="2452.512"
     x2="1451.479"
     y2="2339.209"
     gradientTransform="matrix(12,0,0,-12,-16611.705,29817.492)">
    <stop
       offset="0"
       stop-color="#257cb0"
       id="stop1" />
    <stop
       offset=".286"
       stop-color="#4a93b5"
       id="stop2" />
    <stop
       offset=".767"
       stop-color="#78bcbb"
       id="stop3" />
    <stop
       offset="1"
       stop-color="#89cfbd"
       id="stop4" />
  </linearGradient>
  <path
     clip-path="url(#b)"
     fill="url(#c)"
     d="M 463.24,387.346 V 1746.982 L 1148.848,1067.17 Z"
     id="path4"
     style="fill:url(#c)"
     transform="matrix(0.47348528,0,0,0.47348528,1.5058321,-2064.5814)" />
  <defs
     id="defs4">
    <path
       id="d"
       d="m 1332.988,884.566 -276.756,-159.78 c 0,0 -504.191,-291.132 -533.832,-308.244 -29.64,-17.112 -59.172,-6.744 -59.172,29.016 v 1255.813 c 0,26.808 21.107,38.364 46.859,23.508 25.74,-14.88 546.145,-315.348 546.145,-315.348 l 276.744,-159.769 c 0,0 234.816,-135.563 266.027,-153.576 31.213,-18.036 28.213,-42.756 1.873,-56.939 -26.328,-14.197 -267.888,-154.681 -267.888,-154.681 z" />
  </defs>
  <clipPath
     id="e">
    <use
       xlink:href="#d"
       overflow="visible"
       id="use4" />
  </clipPath>
  <linearGradient
     id="f"
     gradientUnits="userSpaceOnUse"
     x1="1422.913"
     y1="2424.3931"
     x2="1495.392"
     y2="2424.3931"
     gradientTransform="matrix(12,0,0,-12,-16611.705,29817.492)">
    <stop
       offset="0"
       stop-color="#52c1ad"
       id="stop5" />
    <stop
       offset="1"
       stop-color="#dee89a"
       id="stop6" />
  </linearGradient>
  <path
     clip-path="url(#e)"
     fill="url(#f)"
     d="M 1332.988,884.566 1056.232,724.786 463.24,382.402 v 4.944 l 685.608,679.824 z"
     id="path6"
     style="fill:url(#f)"
     transform="matrix(0.47348528,0,0,0.47348528,1.5058321,-2064.5814)" />
  <defs
     id="defs6">
    <path
       id="g"
       d="m 1332.988,884.566 -276.756,-159.78 c 0,0 -504.191,-291.132 -533.832,-308.244 -29.64,-17.112 -59.172,-6.744 -59.172,29.016 v 1255.813 c 0,26.808 21.107,38.364 46.859,23.508 25.74,-14.88 546.145,-315.348 546.145,-315.348 l 276.744,-159.769 c 0,0 234.816,-135.563 266.027,-153.576 31.213,-18.036 28.213,-42.756 1.873,-56.939 -26.328,-14.197 -267.888,-154.681 -267.888,-154.681 z" />
  </defs>
  <clipPath
     id="h">
    <use
       xlink:href="#g"
       overflow="visible"
       id="use6" />
  </clipPath>
  <linearGradient
     id="i"
     gradientUnits="userSpaceOnUse"
     x1="1459.151"
     y1="2395.8601"
     x2="1459.151"
     y2="2338.7971"
     gradientTransform="matrix(12,0,0,-12,-16611.705,29817.492)">
    <stop
       offset="0"
       stop-color="#ec413d"
       id="stop7" />
    <stop
       offset=".167"
       stop-color="#da4452"
       id="stop8" />
    <stop
       offset=".575"
       stop-color="#b0487a"
       id="stop9" />
    <stop
       offset=".862"
       stop-color="#954a92"
       id="stop10" />
    <stop
       offset="1"
       stop-color="#8a4a9d"
       id="stop11" />
  </linearGradient>
  <path
     fill="url(#a)"
     d="M 2798.1121,-2062.4497 H 1316.8706 l 580.1759,956.5132 h 901.0656 a 104.31837,113.21056 0 0 0 104.2302,-112.9953 v -730.4748 a 104.34041,113.23448 0 0 0 -104.2302,-113.0431 z"
     id="path9"
     style="fill:url(#a-0);stroke-width:22.9609" />
  <path
     clip-path="url(#h)"
     fill="url(#i)"
     d="m 463.24,1746.982 v 4.944 l 592.992,-342.396 276.744,-159.78 -184.128,-182.58 z"
     id="path11"
     style="fill:url(#i)"
     transform="matrix(0.47348528,0,0,0.47348528,1.5058321,-2064.5814)" />
  <defs
     id="defs11">
    <path
       id="j"
       d="m 1332.988,884.566 -276.756,-159.78 c 0,0 -504.191,-291.132 -533.832,-308.244 -29.64,-17.112 -59.172,-6.744 -59.172,29.016 v 1255.813 c 0,26.808 21.107,38.364 46.859,23.508 25.74,-14.88 546.145,-315.348 546.145,-315.348 l 276.744,-159.769 c 0,0 234.816,-135.563 266.027,-153.576 31.213,-18.036 28.213,-42.756 1.873,-56.939 -26.328,-14.197 -267.888,-154.681 -267.888,-154.681 z" />
  </defs>
  <clipPath
     id="k">
    <use
       xlink:href="#j"
       overflow="visible"
       id="use11" />
  </clipPath>
  <linearGradient
     id="l"
     gradientUnits="userSpaceOnUse"
     x1="1500.897"
     y1="2411.0769"
     x2="1500.897"
     y2="2380.646"
     gradientTransform="matrix(12,0,0,-12,-16611.705,29817.492)">
    <stop
       offset="0"
       stop-color="#f58879"
       id="stop12" />
    <stop
       offset=".119"
       stop-color="#f69079"
       id="stop13" />
    <stop
       offset=".713"
       stop-color="#fcb877"
       id="stop14" />
    <stop
       offset="1"
       stop-color="#fec874"
       id="stop15" />
  </linearGradient>
  <path
     clip-path="url(#k)"
     fill="url(#l)"
     d="m 1332.988,884.566 -184.14,182.604 184.128,182.58 316.283,-182.592 z"
     id="path15"
     style="fill:url(#l)"
     transform="matrix(0.47348528,0,0,0.47348528,1.5058321,-2064.5814)" />
  <path
     d="m 2264.5552,-1433.4511 c -12.1932,0 -23.3182,-2.25 -33.392,-6.7443 -10.0739,-4.5 -18.5394,-11.4205 -25.3751,-20.7501 h -2.0449 c 1.3631,10.9319 2.0449,21.296 2.0449,31.0853 v 77.0398 h -28.3409 v -271.2672 h 23.0568 l 3.9205,25.625 h 1.3636 c 7.295,-10.2557 15.7841,-17.6478 25.4598,-22.2046 9.6766,-4.5568 20.7841,-6.8352 33.3012,-6.8352 24.8295,0 43.9943,8.4886 57.483,25.4545 13.4943,16.966 20.2443,40.7728 20.2443,71.3978 0,30.7501 -6.8636,54.6308 -20.5739,71.6706 -13.7211,17.0222 -32.7666,25.5284 -57.1473,25.5284 z m -4.1022,-169.9661 c -19.1307,0 -32.966,5.3012 -41.5058,15.8869 -8.5397,10.5904 -12.9261,27.4489 -13.1591,50.5682 v 6.3125 c 0,26.3121 4.3864,45.1303 13.1591,56.466 8.7728,11.3357 22.841,16.9886 42.1876,16.9886 16.1818,0 28.8527,-6.5398 38.0232,-19.6364 9.1591,-13.0909 13.7439,-31.142 13.7439,-54.1591 0,-23.3352 -4.5853,-41.2562 -13.7439,-53.7221 -9.1652,-12.4773 -22.0743,-18.7046 -38.705,-18.7046 z m 147.483,166.5456 h -28.3527 v -265.7957 h 28.3527 z m 163.0286,0 -5.642,-26.6472 h -1.3637 c -9.3414,11.7381 -18.6482,19.687 -27.9318,23.829 -9.2784,4.1648 -20.8694,6.2392 -34.7557,6.2392 -18.5621,0 -33.108,-4.7841 -43.6478,-14.3471 -10.5398,-9.562 -15.8012,-23.1648 -15.8012,-40.8239 0,-37.8012 30.2387,-57.6194 90.7042,-59.4489 l 31.7846,-1.0284 v -11.6137 c 0,-14.6932 -3.1653,-25.5455 -9.4891,-32.5398 -6.3125,-7.0118 -16.4375,-10.5114 -30.3178,-10.5114 -15.6084,0 -33.2614,4.7841 -52.955,14.3466 l -8.7155,-21.6932 c 9.233,-5.0113 19.3296,-8.937 30.3296,-11.7841 10.9886,-2.8466 22,-4.2722 33.0512,-4.2722 22.3186,0 38.858,4.9488 49.6255,14.8579 10.7557,9.9091 16.1364,25.7951 16.1364,47.6649 v 127.7671 h -21.0114 v 0.01 z m -64.0569,-19.9773 c 17.6421,0 31.5057,-4.8413 41.591,-14.517 10.0686,-9.6766 15.1198,-23.233 15.1198,-40.6648 v -16.9091 l -28.3694,1.1875 c -22.5454,0.8125 -38.7902,4.3011 -48.7671,10.5227 -9.9602,6.2046 -14.9436,15.858 -14.9436,28.9546 0,10.2443 3.0966,18.0511 9.313,23.3916 6.2097,5.3584 14.8859,8.0345 26.0563,8.0345 z m 101.5285,-167.2387 h 30.3978 l 41.0005,106.7666 c 8.9943,24.375 14.5791,41.9664 16.7495,52.7898 h 1.3641 c 1.4825,-5.8181 4.5905,-15.7443 9.3064,-29.8234 4.7273,-14.0682 20.1927,-57.3016 46.375,-129.733 h 30.4205 l -80.466,213.1876 c -7.9659,21.0682 -17.2779,36.0167 -27.9375,44.8576 -10.642,8.8182 -23.7159,13.222 -39.1875,13.222 -8.6591,0 -17.1989,-0.9659 -25.6364,-2.8977 v -22.7164 c 6.2609,1.3636 13.2723,2.0512 21.0171,2.0512 19.4772,0 33.3579,-10.9319 41.6818,-32.8007 l 10.4148,-26.6426 z m -869.1603,17.3977 c 9.0005,7.4484 27.7959,23.0961 27.7959,52.875 0,28.9603 -16.4489,42.6933 -32.8977,55.5967 -5.0909,5.0847 -10.9659,10.5847 -10.9659,19.2098 0,8.5966 5.8693,13.3016 10.1931,16.83 l 14.1023,10.9427 c 17.2273,14.4943 32.8751,27.8182 32.8751,54.8467 0,36.8068 -35.6364,73.9943 -102.9774,73.9943 -56.7894,0 -84.1871,-27.0114 -84.1871,-56.0057 0,-14.0909 7.0166,-34.0512 30.1534,-47.7728 24.2614,-14.8807 57.1762,-16.8182 74.7894,-18.0222 -5.4995,-7.0398 -11.7495,-14.483 -11.7495,-26.6023 0,-6.6478 1.9659,-10.5682 3.9152,-15.2898 -4.3243,0.3977 -8.6255,0.7898 -12.5455,0.7898 -41.4948,0 -64.9887,-30.9376 -64.9887,-61.466 0,-18.0171 8.233,-38 25.0512,-52.4717 22.3291,-18.4029 48.9541,-21.5454 70.1194,-21.5454 h 80.6478 l -25.063,14.0966 h -24.2676 v -0.01 z m -27.8126,173.8752 c -3.1302,-0.4091 -5.0965,-0.4091 -8.9943,-0.4091 -3.5222,0 -24.6984,0.8011 -41.1245,6.2954 -8.6132,3.108 -33.6824,12.5057 -33.6824,40.3239 0,27.7898 27.0346,47.7903 68.9381,47.7903 37.5682,0 57.5621,-18.0511 57.5621,-42.3073 0,-20.0114 -12.9257,-30.5398 -42.699,-51.6932 z m 11.3637,-74.4149 c 8.9943,-9.017 9.7675,-21.5341 9.7675,-28.5909 0,-28.1875 -16.83,-72.0455 -49.3239,-72.0455 -10.1936,0 -21.1477,5.0852 -27.4148,12.9261 -6.6482,8.2216 -8.6255,18.7841 -8.6255,28.9773 0,26.233 15.2728,69.7046 48.966,69.7046 9.7902,0 20.3414,-4.6989 26.6307,-10.9716 z m -230.0793,68.1478 c -62.1535,0 -95.386,-48.483 -95.386,-92.2785 0,-51.2221 41.8239,-94.9887 101.2729,-94.9887 57.4427,0 93.4148,44.9432 93.4148,92.261 0.01,46.1141 -35.5573,95.0062 -99.3017,95.0062 z m 48.8642,-31.6648 c 9.3977,-12.5227 11.7438,-28.1534 11.7438,-43.4143 0,-34.4153 -16.4204,-100.0854 -64.9034,-100.0854 -12.8973,0 -25.795,5.091 -35.1757,13.3182 -15.2505,13.6644 -18.0001,30.8751 -18.0001,47.7046 0,38.6762 19.1587,102.386 66.4769,102.386 15.2443,0 30.8859,-7.4148 39.8585,-19.9091 z m -260.7678,31.6648 c -62.1653,0 -95.4035,-48.483 -95.4035,-92.2785 0,-51.2221 41.8405,-94.9887 101.2728,-94.9887 57.4603,0 93.4258,44.9432 93.4258,92.261 0.01,46.1141 -35.5621,95.0062 -99.2951,95.0062 z m 48.8751,-31.6648 c 9.3806,-12.5227 11.7329,-28.1534 11.7329,-43.4143 0,-34.4153 -16.4323,-100.0854 -64.9153,-100.0854 -12.892,0 -25.8007,5.091 -35.1762,13.3182 -15.25,13.6644 -17.9829,30.8751 -17.9829,47.7046 0,38.6762 19.1477,102.386 66.4721,102.386 15.25,0 30.8812,-7.4148 39.8694,-19.9091 z m -174.1422,25.5341 -56.2165,12.9716 c -22.8068,3.5455 -43.2382,6.6648 -64.8462,6.6648 -108.50005,0 -149.75577,-79.7955 -149.75577,-142.2956 0,-76.2439 58.55687,-146.9774 158.80127,-146.9774 21.233,0 41.6539,3.1364 60.1251,8.25 29.4773,8.2562 43.2334,18.4659 51.8864,24.3698 l -32.6364,31.0507 -13.75,3.1307 9.8238,-15.7273 c -13.3579,-12.9602 -37.75,-36.9318 -84.1137,-36.9318 -62.10798,0 -108.89164,47.1875 -108.89164,115.966 0,73.875 53.46595,143.449 139.13604,143.449 25.1818,0 38.1255,-5.1018 49.9262,-9.8296 v -63.2671 l -59.341,3.1421 31.4318,-16.92 h 83.3353 l -10.2102,9.8238 c -2.7723,2.3694 -3.1529,3.1648 -3.937,6.2785 -0.4091,3.5454 -0.7784,14.9545 -0.7784,18.8807 v 47.9716 h 0.011 z"
     fill="#f9f9f9"
     id="path16"
     style="stroke-width:0.473485" />
  <path
     d="m 1863.5094,-1456.5307 c -12.9773,-1.1818 -15.6937,-3.5284 -15.6937,-18.875 v -222.4661 c 0.08,-0.8466 0.1307,-1.7159 0.2098,-2.5346 1.5857,-13.75 5.5118,-16.1079 17.7102,-23.1927 h -56.2263 l -29.4882,14.1534 h 30.0511 v 0.1762 l -0.023,-0.1421 v 242.665 c 0,7.8466 -1.5511,9.0398 -10.6027,20.8182 h 69.58 l 14.545,-8.625 c -6.6761,-0.8125 -13.3693,-1.1932 -20.0625,-1.9773 z m 159.9429,3.6137 c -4.278,2.3466 -8.5734,5.0909 -12.8523,7.0284 -12.9034,5.8523 -26.17,7.4204 -37.9035,7.4204 -12.4602,0 -31.9943,-0.8068 -51.9205,-15.2329 -27.6927,-19.5341 -39.795,-53.1019 -39.795,-82.3694 0,-60.4944 49.1814,-90.1592 89.386,-90.1592 14.0568,0 28.5175,3.5057 40.2273,10.938 19.5005,12.8575 24.5734,29.6421 27.2898,38.6246 l -91.7098,37.097 -30.0626,2.3405 c 9.7444,49.5739 43.313,78.4376 80.4092,78.4376 19.9034,0 34.3523,-7.0114 47.6194,-13.6364 z m -36.6814,-116.3411 c 7.4034,-2.7215 11.3063,-5.0738 11.3063,-10.5341 0,-15.6022 -17.5568,-33.5682 -38.6534,-33.5682 -15.6312,0 -44.8864,12.108 -44.8864,54.2562 0,6.6364 0.7841,13.6591 1.1875,20.7098 z m 74.3575,-54.3011 v 25.7557 h -3.1302 v -25.7557 h -8.5227 v -2.671 h 20.1705 v 2.671 z m 35.1142,25.7557 v -25.9944 h -0.1421 l -7.9318,25.9944 h -2.4489 l -8,-25.9944 h -0.1027 v 25.9944 h -2.8409 v -28.4262 h 4.8693 l 7.2386,22.9773 h 0.1023 l 7.1307,-22.9773 h 4.938 v 28.4262 z"
     fill="#f9f9f9"
     id="path17"
     style="stroke-width:0.473485" />
  <path
     d="m 962.82678,-1791.3833 h -19.53411 c 0,-2.6875 -1.85227,-10.2954 -5.55682,-22.8295 h -28.19937 c -3.82339,12.3295 -5.73816,19.937 -5.73816,22.8295 h -18.36934 c 0,-1.5857 4.75001,-14.6084 14.25001,-39.0625 9.49954,-24.4546 14.25002,-37.9266 14.25002,-40.4034 h 23.07388 c 0,2.3182 4.30114,15.5909 12.90911,39.8239 8.60796,24.2329 12.91478,37.4432 12.91478,39.642 z m -28.19936,-34.4886 c -6.95976,-20.9948 -10.43704,-32.3466 -10.43704,-34.0573 h -0.97727 c 0,1.5857 -3.60228,12.9375 -10.80115,34.0573 z m 106.90398,34.4886 h -15.0739 c 0,-1.6704 -5.5961,-10.4772 -16.7841,-26.4261 -11.71591,-16.8068 -18.39205,-28.2955 -20.01658,-34.4825 h -0.97727 c 1.01705,8.9086 1.52888,16.9654 1.52888,24.1705 0,10.0511 0.28409,22.3011 0.85228,36.7443 h -15.01706 c 0.60748,-12.6136 0.91477,-26.4659 0.91477,-41.5625 0,-14.8518 -0.30682,-27.4887 -0.91477,-37.9035 h 18.12454 c 0,2.1591 5.02273,10.7671 15.07391,25.8182 10.6993,15.9887 16.8466,26.8353 18.4323,32.5341 h 0.9147 c -0.9768,-9.0738 -1.4659,-17.2107 -1.4659,-24.4147 0,-11.0223 -0.2845,-22.341 -0.8522,-33.9376 h 15.2613 c -0.5743,10.0909 -0.8527,22.7273 -0.8527,37.9035 -0.01,15.2893 0.2779,29.1416 0.8518,41.5563 z m 88.4603,-42.4825 c 0,11.5564 -3.7041,21.6478 -11.108,30.2728 -7.4091,8.6307 -17.7845,12.9375 -31.1307,12.9375 -6.0227,0 -14.3238,-0.2448 -24.9034,-0.7334 0.5279,-12.2893 0.7955,-26.1478 0.7955,-41.5621 0,-14.8068 -0.2671,-27.4432 -0.7955,-37.9039 h 10.6823 c 1.7495,0 4.3518,-0.062 7.8125,-0.1818 3.4541,-0.1194 5.7154,-0.1819 6.7723,-0.1819 14.688,0 25.3357,3.6648 31.9545,10.9887 6.6137,7.3239 9.9205,16.108 9.9205,26.3641 z m -16.6596,2.6241 c 0,-7.8125 -2.2784,-14.3921 -6.8352,-19.75 -4.5568,-5.3466 -11.5171,-8.0223 -20.875,-8.0223 -1.7496,0 -4.1478,0.1818 -7.2046,0.5511 0.4034,8.1416 0.608,16.6416 0.608,25.5114 0,9.7273 0.2045,19.3694 0.6075,28.9319 a 40.385453,40.385453 0 0 0 7.9318,0.7954 c 8.75,0 15.2273,-2.7211 19.438,-8.1534 4.2107,-5.4318 6.3295,-12.0516 6.3295,-19.8641 z m 98.2335,39.8584 h -18.0682 c -4.7216,-14.4034 -8.3404,-23.2954 -10.8631,-26.6704 -2.5228,-3.3807 -6.5909,-5.0682 -12.2046,-5.0682 -2.3636,0 -4.6198,0.023 -6.7727,0.062 0,10.4607 0.1813,21.017 0.5511,31.6761 h -16.9659 c 0.5279,-12.2897 0.7954,-26.1477 0.7954,-41.5625 0,-14.8063 -0.267,-27.4432 -0.7954,-37.9034 h 10.5563 c 1.2216,0 3.7733,-0.062 7.6596,-0.1819 3.8864,-0.1193 7.4773,-0.1822 10.7728,-0.1822 18.6761,0 28.017,6.3863 28.017,19.1652 0,10.1307 -5.3295,17.1875 -15.9886,21.1819 v 0.9147 c 4.1079,1.1364 7.7102,4.3466 10.8011,9.608 3.0848,5.267 7.2552,14.9205 12.5052,28.9602 z m -22.8863,-56.1539 c 0,-8.0966 -5.2103,-12.1473 -15.6251,-12.1473 -3.8238,0 -7.205,0.2841 -10.1306,0.8523 0.4488,6.3068 0.6704,14.5284 0.6704,24.6591 2.2391,0.085 4.1312,0.1194 5.6761,0.1194 12.9376,0.01 19.4092,-4.4887 19.4092,-13.4835 z m 110.3746,14.9546 c 0,12.4891 -3.8239,22.8466 -11.4768,31.0682 -7.6534,8.2164 -17.1137,12.3295 -28.3807,12.3295 -10.7439,0 -19.7387,-3.7727 -26.9773,-11.3238 -7.2444,-7.5455 -10.8637,-17.1416 -10.8637,-28.7728 0,-12.4886 3.8239,-22.8466 11.4773,-31.0682 7.6477,-8.2159 17.108,-12.3296 28.3802,-12.3296 10.7444,0 19.7335,3.7614 26.9778,11.2898 7.2443,7.5289 10.8632,17.1255 10.8632,28.8069 z m -16.8405,1.7675 c 0,-8.5057 -2.1766,-15.4034 -6.5284,-20.6932 -4.3579,-5.2898 -9.7273,-7.9318 -16.1136,-7.9318 -5.9432,0 -10.9887,2.6647 -15.1364,7.9943 -4.1477,5.3295 -6.233,12.063 -6.233,20.2046 0,8.4602 2.1875,15.3466 6.5621,20.6595 4.375,5.3125 9.7334,7.966 16.0857,7.966 5.9375,0 10.9886,-2.6762 15.1364,-8.0289 4.1477,-5.3466 6.2272,-12.0744 6.2272,-20.1705 z m 51.3524,39.4318 h -17.2728 c 0.5284,-12.6136 0.7955,-26.4659 0.7955,-41.5625 0,-14.8523 -0.2666,-27.4887 -0.7955,-37.9034 h 17.2728 c -0.5285,10.2557 -0.7955,22.8864 -0.7955,37.9034 0,15.3353 0.267,29.1932 0.7955,41.5625 z m 88.4659,-42.4825 c 0,11.5564 -3.7045,21.6478 -11.1079,30.2728 -7.4086,8.6307 -17.7841,12.9375 -31.1307,12.9375 -6.0228,0 -14.3239,-0.2448 -24.9039,-0.7334 0.5288,-12.2893 0.7959,-26.1478 0.7959,-41.5621 0,-14.8068 -0.2666,-27.4432 -0.7959,-37.9039 h 10.6823 c 1.75,0 4.3522,-0.062 7.8125,-0.1818 3.455,-0.1194 5.7159,-0.1819 6.7732,-0.1819 14.6875,0 25.3352,3.6648 31.9541,10.9887 6.6136,7.3239 9.9204,16.108 9.9204,26.3641 z m -16.6591,2.6241 c 0,-7.8125 -2.2784,-14.3921 -6.8357,-19.75 -4.5568,-5.3466 -11.5166,-8.0223 -20.875,-8.0223 -1.75,0 -4.1477,0.1818 -7.2045,0.5511 0.4034,8.1416 0.6074,16.6416 0.6074,25.5114 0,9.7273 0.2051,19.3694 0.608,28.9319 a 40.388768,40.388768 0 0 0 7.9318,0.7954 c 8.7496,0 15.2273,-2.7211 19.4375,-8.1534 4.2112,-5.4318 6.3305,-12.0516 6.3305,-19.8641 z m 134.0229,39.8584 h -19.5341 c 0,-2.6875 -1.8523,-10.2954 -5.5625,-22.8295 H 1486.1 c -3.8239,12.3295 -5.7391,19.937 -5.7391,22.8295 h -18.3632 c 0,-1.5857 4.7495,-14.6084 14.25,-39.0625 9.5,-24.4546 14.25,-37.9266 14.25,-40.4034 h 23.0739 c 0,2.3182 4.3068,15.5909 12.9091,39.8239 8.6023,24.2329 12.9148,37.4432 12.9148,39.642 z m -28.1989,-34.4886 c -6.9602,-20.9948 -10.4437,-32.3466 -10.4437,-34.0573 h -0.9772 c 0,1.5857 -3.5966,12.9375 -10.795,34.0573 z m 99.3921,-24.1705 c 0,9.7273 -3.6141,16.9091 -10.8357,21.5455 -7.2216,4.6363 -16.0795,6.9597 -26.58,6.9597 -1.9143,0 -3.2723,-0.04 -4.0905,-0.1193 0,7.6534 0.2212,17.7391 0.6705,30.2732 h -17.1539 c 0.5279,-11.7556 0.7954,-25.6141 0.7954,-41.5625 0,-14.6477 -0.2665,-27.2841 -0.7954,-37.9034 h 10.6193 c 1.5057,0 4.3916,-0.062 8.6648,-0.1819 4.2732,-0.1193 7.9721,-0.1822 11.108,-0.1822 7.7272,0 14.2613,1.75 19.5909,5.25 5.33,3.5004 8.0066,8.8016 8.0066,15.9209 z m -15.7443,3.358 c 0,-8.7051 -5.7789,-13.0626 -17.3352,-13.0626 -2.8921,0 -5.9432,0.3064 -9.1535,0.9148 0.4489,7.6932 0.6705,16.3978 0.6705,26.125 1.0166,0.085 2.1989,0.1194 3.5398,0.1194 14.8523,0.01 22.2784,-4.6932 22.2784,-14.0966 z m 88.9489,-3.358 c 0,9.7273 -3.6136,16.9091 -10.8295,21.5455 -7.2216,4.6363 -16.0853,6.9597 -26.5848,6.9597 -1.9152,0 -3.2727,-0.04 -4.0914,-0.1193 0,7.6534 0.2221,17.7391 0.6705,30.2732 h -17.1534 c 0.5284,-11.7556 0.7959,-25.6141 0.7959,-41.5625 0,-14.6477 -0.2671,-27.2841 -0.7959,-37.9034 h 10.6193 c 1.5061,0 4.392,-0.062 8.6648,-0.1819 4.2727,-0.1193 7.9716,-0.1822 11.1079,-0.1822 7.7268,0 14.2614,1.75 19.591,5.25 5.329,3.5004 8.0056,8.8016 8.0056,15.9209 z m -15.7443,3.358 c 0,-8.7051 -5.7784,-13.0626 -17.3348,-13.0626 -2.892,0 -5.9436,0.3064 -9.1534,0.9148 0.4484,7.6932 0.6705,16.3978 0.6705,26.125 1.0166,0.085 2.1988,0.1194 3.5398,0.1194 14.8518,0.01 22.2779,-4.6932 22.2779,-14.0966 z m 135.432,14.1018 c 0,12.4891 -3.8239,22.8466 -11.4773,31.0682 -7.653,8.2216 -17.1137,12.3295 -28.3807,12.3295 -10.7439,0 -19.7387,-3.7727 -26.9769,-11.3238 -7.2391,-7.5455 -10.8636,-17.1416 -10.8636,-28.7728 0,-12.4886 3.8239,-22.8466 11.4768,-31.0682 7.6534,-8.2216 17.1141,-12.3296 28.3807,-12.3296 10.7443,0 19.7387,3.7614 26.9773,11.2898 7.2386,7.5289 10.8637,17.1255 10.8637,28.8069 z m -16.8467,1.7675 c 0,-8.5057 -2.1766,-15.4034 -6.5284,-20.6932 -4.3518,-5.2898 -9.7273,-7.9318 -16.1131,-7.9318 -5.9437,0 -10.9892,2.6647 -15.1369,7.9943 -4.1477,5.3295 -6.2273,12.063 -6.2273,20.2046 0,8.4602 2.188,15.3466 6.5625,20.6595 4.3746,5.3125 9.733,7.966 16.0796,7.966 5.9432,0 10.9886,-2.6762 15.1364,-8.0285 4.1534,-5.347 6.2272,-12.0748 6.2272,-20.1709 z m 99.574,39.4318 h -15.0739 c 0,-1.6704 -5.5914,-10.4772 -16.7841,-26.4261 -11.7159,-16.8068 -18.3925,-28.2955 -20.017,-34.4825 h -0.9773 c 1.017,8.9086 1.5289,16.9654 1.5289,24.1705 0,10.0511 0.2841,22.3011 0.8527,36.7443 h -15.0175 c 0.6079,-12.6136 0.9147,-26.4659 0.9147,-41.5625 0,-14.8518 -0.3058,-27.4887 -0.9147,-37.9035 h 18.125 c 0,2.1591 5.0284,10.7671 15.0739,25.8182 10.7045,15.9887 16.8466,26.8353 18.4323,32.5341 h 0.9148 c -0.9773,-9.0738 -1.466,-17.2107 -1.466,-24.4147 0,-11.0223 -0.284,-22.341 -0.8527,-33.9376 h 15.2614 c -0.5739,10.0909 -0.8523,22.7273 -0.8523,37.9035 -5e-4,15.2893 0.2836,29.1416 0.8518,41.5563 z"
     fill="#f9f9fa"
     id="path18"
     style="stroke-width:0.473485" />
</svg>
